<svg xmlns="http://www.w3.org/2000/svg" version="1.1" xmlns:xlink="http://www.w3.org/1999/xlink" xmlns:svgjs="http://svgjs.dev/svgjs" width="2000" height="1500" viewBox="0 0 2000 1500"><rect width="2000" height="1500" fill="#ffffff"></rect><g transform="matrix(0.75,0,0,0.75,249.090909090909,282.7536437246963)"><svg viewBox="0 0 396 247" data-background-color="#ffffff" preserveAspectRatio="xMidYMid meet" height="1247" width="2000" xmlns="http://www.w3.org/2000/svg" xmlns:xlink="http://www.w3.org/1999/xlink"><g id="tight-bounds" transform="matrix(1,0,0,1,0.2400000000000091,-0.09999999999999432)"><svg viewBox="0 0 395.52 247.2" height="247.2" width="395.52"><g><svg></svg></g><g><svg viewBox="0 0 395.52 247.2" height="247.2" width="395.52"><g transform="matrix(1,0,0,1,75.54432000000001,79.90067580855822)"><svg viewBox="0 0 244.43135999999996 87.39864838288354" height="87.39864838288354" width="244.43135999999996"><g><svg viewBox="0 0 244.43135999999996 87.39864838288354" height="87.39864838288354" width="244.43135999999996"><g><svg viewBox="0 0 244.43135999999996 87.39864838288354" height="87.39864838288354" width="244.43135999999996"><g><svg viewBox="0 0 244.43135999999996 87.39864838288354" height="87.39864838288354" width="244.43135999999996"><g id="textblocktransform"><svg viewBox="0 0 244.43135999999996 87.39864838288354" height="87.39864838288354" width="244.43135999999996" id="textblock"><g><svg viewBox="0 0 244.43135999999996 47.13865471689593" height="47.13865471689593" width="244.43135999999996"><g transform="matrix(1,0,0,1,0,0)"><svg width="244.43135999999996" viewBox="1.710588348457 -35.18 224.54941165154298 43.31" height="47.13865471689593" data-palette-color="#ff0000"><path d="M10.62 0.32L10.62 0.32Q6.03 0.32 3.98-1.14 1.93-2.59 1.81-5.93L1.81-5.93Q1.68-7.79 1.72-9.3 1.76-10.82 1.88-12.7L1.88-12.7 5.18-12.7Q5.03-10.82 5.04-8.96 5.05-7.1 5.18-5.37L5.18-5.37Q5.3-3.96 6.52-3.28 7.74-2.61 10.55-2.61L10.55-2.61Q13.31-2.61 14.47-3.28 15.63-3.96 15.77-5.37L15.77-5.37Q15.89-7.1 15.88-8.39 15.87-9.67 15.77-11.57L15.77-11.57Q15.67-13.09 14.98-14.11 14.28-15.14 11.89-15.45L11.89-15.45 8.4-16.09Q5.64-16.55 4.26-17.44 2.88-18.33 2.38-19.74 1.88-21.14 1.78-23.17L1.78-23.17Q1.71-24.51 1.73-26.04 1.76-27.56 1.83-29L1.83-29Q1.88-32.32 3.87-33.75 5.86-35.18 10.55-35.18L10.55-35.18Q14.87-35.18 16.83-33.74 18.8-32.3 18.92-28.98L18.92-28.98Q18.99-27.83 18.97-26.14 18.95-24.44 18.87-22.63L18.87-22.63 15.55-22.63Q15.72-24.37 15.72-26.1 15.72-27.83 15.6-29.54L15.6-29.54Q15.5-30.93 14.32-31.59 13.13-32.25 10.47-32.25L10.47-32.25Q7.71-32.25 6.53-31.59 5.35-30.93 5.22-29.54L5.22-29.54Q5.1-27.98 5.11-26.37 5.13-24.76 5.22-23.17L5.22-23.17Q5.32-21.39 5.99-20.45 6.67-19.51 9.18-19.21L9.18-19.21 12.6-18.68Q15.36-18.26 16.75-17.33 18.14-16.41 18.64-14.98 19.14-13.55 19.21-11.57L19.21-11.57Q19.34-9.77 19.31-8.64 19.29-7.52 19.17-5.93L19.17-5.93Q18.99-2.59 17-1.14 15.01 0.32 10.62 0.32ZM30.69 0.29L30.69 0.29Q26.88 0.29 25.55-0.98 24.22-2.25 24.22-5.13L24.22-5.13 24.22-21.02 21.87-21.02 21.87-23.75 24.29-23.75 24.29-30.49 27.39-30.49 27.39-23.75 32.76-23.75 32.76-21.02 27.37-21.02 27.37-4.79Q27.37-3.44 27.93-2.93 28.49-2.42 30.76-2.42L30.76-2.42Q31.69-2.42 32.19-2.45 32.69-2.49 33.35-2.51L33.35-2.51 33.35 0.1Q32.76 0.2 32.08 0.24 31.39 0.29 30.69 0.29ZM41.4 0.27L41.4 0.27Q38.42 0.27 36.99-0.9 35.57-2.08 35.32-4.57L35.32-4.57Q35.3-5.05 35.26-5.54 35.22-6.03 35.27-6.49L35.27-6.49Q35.44-8.67 36.64-10.14 37.84-11.62 41.18-12.84L41.18-12.84Q42.55-13.33 44.06-13.72 45.58-14.11 47.07-14.48L47.07-14.48 47.07-18.99Q47.07-20.19 46.16-20.76 45.26-21.34 43.01-21.34L43.01-21.34Q41.06-21.34 40.05-20.85 39.03-20.36 38.94-19.07L38.94-19.07Q38.89-18.46 38.89-17.32 38.89-16.19 38.94-15.41L38.94-15.41 35.88-15.41Q35.83-16.02 35.79-16.99 35.74-17.97 35.81-18.73L35.81-18.73Q35.93-21.56 37.65-22.81 39.37-24.07 43.13-24.07L43.13-24.07Q47.07-24.07 48.59-22.71 50.12-21.34 50.14-18.21L50.14-18.21 50.14 0 47.07 0 47.07-2.25 46.38-2.25Q45.77-1.03 44.64-0.38 43.5 0.27 41.4 0.27ZM42.18-2.37L42.18-2.37Q45.7-2.37 47.04-4.47L47.04-4.47 47.04-11.87Q45.87-11.62 44.64-11.29 43.4-10.96 41.74-10.4L41.74-10.4Q39.77-9.67 39.11-8.72 38.45-7.76 38.35-6.49L38.35-6.49Q38.37-6.13 38.39-5.7 38.4-5.27 38.45-4.81L38.45-4.81Q38.62-3.64 39.62-3 40.62-2.37 42.18-2.37ZM61.98 0.29L61.98 0.29Q57.95 0.29 56.23-0.98 54.51-2.25 54.39-5.13L54.39-5.13Q54.29-6.93 54.25-9.38 54.22-11.82 54.25-14.28 54.29-16.75 54.39-18.58L54.39-18.58Q54.51-21.53 56.28-22.8 58.05-24.07 61.98-24.07L61.98-24.07Q65.69-24.07 67.35-22.83 69.01-21.58 69.18-18.73L69.18-18.73Q69.23-17.87 69.28-15.75 69.33-13.62 69.13-11.23L69.13-11.23 57.44-11.23Q57.44-9.69 57.46-8.11 57.49-6.52 57.56-4.81L57.56-4.81Q57.59-3.47 58.59-2.95 59.59-2.44 61.88-2.44L61.88-2.44Q64.15-2.44 65.08-2.95 66.01-3.47 66.11-4.81L66.11-4.81Q66.18-6.15 66.11-8.47L66.11-8.47 69.13-8.47Q69.26-7.76 69.24-6.82 69.23-5.88 69.18-5.13L69.18-5.13Q69.01-2.25 67.44-0.98 65.86 0.29 61.98 0.29ZM57.44-13.82L57.44-13.82 66.15-13.82Q66.2-15.48 66.2-16.99 66.2-18.51 66.11-19.07L66.11-19.07Q66.01-20.29 65.06-20.81 64.1-21.34 61.98-21.34L61.98-21.34Q59.61-21.34 58.6-20.81 57.59-20.29 57.56-19.07L57.56-19.07Q57.49-17.65 57.45-16.36 57.41-15.06 57.44-13.82ZM75.48 8.13L75.48 8.13Q74.7 8.13 73.61 8.06 72.52 7.98 71.82 7.91L71.82 7.91 71.82 5.2Q73.33 5.32 75.38 5.32L75.38 5.32Q77.55 5.32 78.32 4.8 79.09 4.27 79.36 2.95L79.36 2.95 80.07 0 76.77 0 72.38-23.75 75.6-23.75 77.24-12.43 79.12-2.71 80.61-2.71 82.61-12.43 84.34-23.75 87.59-23.75 82.46 2.71Q82 5.59 80.51 6.86 79.02 8.13 75.48 8.13ZM94.57-30.2L93.54-25.17 91.44-25.17 90.44-30.2 90.44-34.86 94.57-34.86 94.57-30.2ZM105.48 0.29L105.48 0.29Q101.55 0.29 100.02-0.98 98.5-2.25 98.37-5.13L98.37-5.13Q98.32-5.88 98.31-6.82 98.3-7.76 98.4-8.47L98.4-8.47 101.25-8.47Q101.21-7.35 101.22-6.41 101.23-5.47 101.25-4.81L101.25-4.81Q101.28-3.47 102.19-2.95 103.11-2.44 105.48-2.44L105.48-2.44Q107.9-2.44 108.88-2.95 109.87-3.47 109.95-4.81L109.95-4.81Q110.02-5.64 110.04-6.04 110.07-6.45 110.04-7.2L110.04-7.2Q109.97-8.45 109.38-9.13 108.8-9.81 106.85-10.11L106.85-10.11 103.99-10.77Q101.79-11.23 100.6-11.94 99.4-12.65 98.91-13.78 98.42-14.92 98.32-16.65L98.32-16.65Q98.25-17.53 98.45-18.58L98.45-18.58Q98.5-21.53 100.05-22.8 101.6-24.07 105.7-24.07L105.7-24.07Q109.63-24.07 111.15-22.83 112.68-21.58 112.83-18.73L112.83-18.73Q112.83-17.99 112.81-17.05 112.8-16.11 112.73-15.41L112.73-15.41 109.78-15.41Q109.9-16.26 109.88-17.36 109.87-18.46 109.82-19.07L109.82-19.07Q109.8-20.36 108.93-20.85 108.07-21.34 105.7-21.34L105.7-21.34Q103.31-21.34 102.44-20.85 101.57-20.36 101.47-19.07L101.47-19.07Q101.45-18.46 101.4-18.05 101.35-17.65 101.38-16.94L101.38-16.94Q101.45-16.09 101.63-15.43 101.82-14.77 102.46-14.34 103.11-13.92 104.57-13.7L104.57-13.7 107.31-13.13Q110.29-12.52 111.65-11.24 113.02-9.96 113.02-7.37L113.02-7.37Q113.02-6.84 113.01-6.23 113-5.62 112.95-5.05L112.95-5.05Q112.78-2.2 111.15-0.95 109.53 0.29 105.48 0.29ZM134.01 0.29L134.01 0.29Q129.98 0.29 128.26-0.98 126.54-2.25 126.42-5.13L126.42-5.13Q126.32-6.93 126.29-9.38 126.25-11.82 126.29-14.28 126.32-16.75 126.42-18.58L126.42-18.58Q126.54-21.53 128.31-22.8 130.08-24.07 134.01-24.07L134.01-24.07Q137.72-24.07 139.38-22.83 141.04-21.58 141.22-18.73L141.22-18.73Q141.26-17.87 141.31-15.75 141.36-13.62 141.17-11.23L141.17-11.23 129.47-11.23Q129.47-9.69 129.5-8.11 129.52-6.52 129.59-4.81L129.59-4.81Q129.62-3.47 130.62-2.95 131.62-2.44 133.92-2.44L133.92-2.44Q136.19-2.44 137.11-2.95 138.04-3.47 138.14-4.81L138.14-4.81Q138.21-6.15 138.14-8.47L138.14-8.47 141.17-8.47Q141.29-7.76 141.28-6.82 141.26-5.88 141.22-5.13L141.22-5.13Q141.04-2.25 139.47-0.98 137.9 0.29 134.01 0.29ZM129.47-13.82L129.47-13.82 138.19-13.82Q138.24-15.48 138.24-16.99 138.24-18.51 138.14-19.07L138.14-19.07Q138.04-20.29 137.09-20.81 136.14-21.34 134.01-21.34L134.01-21.34Q131.65-21.34 130.63-20.81 129.62-20.29 129.59-19.07L129.59-19.07Q129.52-17.65 129.48-16.36 129.45-15.06 129.47-13.82ZM150.83 0.27L150.83 0.27Q147.85 0.27 146.43-0.9 145-2.08 144.75-4.57L144.75-4.57Q144.73-5.05 144.69-5.54 144.66-6.03 144.7-6.49L144.7-6.49Q144.87-8.67 146.07-10.14 147.27-11.62 150.61-12.84L150.61-12.84Q151.98-13.33 153.49-13.72 155.01-14.11 156.5-14.48L156.5-14.48 156.5-18.99Q156.5-20.19 155.59-20.76 154.69-21.34 152.44-21.34L152.44-21.34Q150.49-21.34 149.48-20.85 148.46-20.36 148.37-19.07L148.37-19.07Q148.32-18.46 148.32-17.32 148.32-16.19 148.37-15.41L148.37-15.41 145.31-15.41Q145.27-16.02 145.22-16.99 145.17-17.97 145.24-18.73L145.24-18.73Q145.36-21.56 147.08-22.81 148.81-24.07 152.57-24.07L152.57-24.07Q156.5-24.07 158.02-22.71 159.55-21.34 159.57-18.21L159.57-18.21 159.57 0 156.5 0 156.5-2.25 155.81-2.25Q155.2-1.03 154.07-0.38 152.93 0.27 150.83 0.27ZM151.61-2.37L151.61-2.37Q155.13-2.37 156.47-4.47L156.47-4.47 156.47-11.87Q155.3-11.62 154.07-11.29 152.83-10.96 151.17-10.4L151.17-10.4Q149.2-9.67 148.54-8.72 147.88-7.76 147.78-6.49L147.78-6.49Q147.8-6.13 147.82-5.7 147.83-5.27 147.88-4.81L147.88-4.81Q148.05-3.64 149.05-3 150.05-2.37 151.61-2.37ZM171.56 0.29L171.56 0.29Q167.75 0.29 166.42-0.98 165.09-2.25 165.09-5.13L165.09-5.13 165.09-21.02 162.74-21.02 162.74-23.75 165.16-23.75 165.16-30.49 168.26-30.49 168.26-23.75 173.63-23.75 173.63-21.02 168.24-21.02 168.24-4.79Q168.24-3.44 168.8-2.93 169.36-2.42 171.63-2.42L171.63-2.42Q172.56-2.42 173.06-2.45 173.56-2.49 174.22-2.51L174.22-2.51 174.22 0.1Q173.63 0.2 172.95 0.24 172.27 0.29 171.56 0.29ZM184.1 0.29L184.1 0.29Q180.08 0.29 178.35-0.98 176.63-2.25 176.51-5.13L176.51-5.13Q176.41-6.93 176.38-9.38 176.34-11.82 176.38-14.28 176.41-16.75 176.51-18.58L176.51-18.58Q176.63-21.53 178.4-22.8 180.17-24.07 184.1-24.07L184.1-24.07Q187.81-24.07 189.47-22.83 191.13-21.58 191.31-18.73L191.31-18.73Q191.35-17.87 191.4-15.75 191.45-13.62 191.26-11.23L191.26-11.23 179.56-11.23Q179.56-9.69 179.59-8.11 179.61-6.52 179.68-4.81L179.68-4.81Q179.71-3.47 180.71-2.95 181.71-2.44 184.01-2.44L184.01-2.44Q186.28-2.44 187.2-2.95 188.13-3.47 188.23-4.81L188.23-4.81Q188.3-6.15 188.23-8.47L188.23-8.47 191.26-8.47Q191.38-7.76 191.37-6.82 191.35-5.88 191.31-5.13L191.31-5.13Q191.13-2.25 189.56-0.98 187.99 0.29 184.1 0.29ZM179.56-13.82L179.56-13.82 188.28-13.82Q188.33-15.48 188.33-16.99 188.33-18.51 188.23-19.07L188.23-19.07Q188.13-20.29 187.18-20.81 186.23-21.34 184.1-21.34L184.1-21.34Q181.74-21.34 180.72-20.81 179.71-20.29 179.68-19.07L179.68-19.07Q179.61-17.65 179.57-16.36 179.54-15.06 179.56-13.82ZM198.63-19.19L198.63 0 195.48 0 195.48-23.75 198.63-23.75 198.63-21.53 199.31-21.53Q199.95-22.75 201-23.41 202.05-24.07 203.61-24.07L203.61-24.07Q205.95-24.07 207.09-22.84 208.22-21.61 208.22-18.58L208.22-18.58Q208.22-17.92 208.17-17.02 208.12-16.11 208.03-15.41L208.03-15.41 205-15.41Q205.05-15.65 205.06-16.26 205.07-16.87 205.08-17.48 205.1-18.09 205.1-18.31L205.1-18.31Q205.1-20.12 204.49-20.76 203.88-21.41 202.53-21.41L202.53-21.41Q199.68-21.41 198.63-19.19L198.63-19.19ZM214.15 8.13L214.15 8.13Q213.37 8.13 212.28 8.06 211.2 7.98 210.49 7.91L210.49 7.91 210.49 5.2Q212 5.32 214.05 5.32L214.05 5.32Q216.23 5.32 217 4.8 217.77 4.27 218.03 2.95L218.03 2.95 218.74 0 215.45 0 211.05-23.75 214.27-23.75 215.91-12.43 217.79-2.71 219.28-2.71 221.28-12.43 223.01-23.75 226.26-23.75 221.13 2.71Q220.67 5.59 219.18 6.86 217.69 8.13 214.15 8.13Z" opacity="1" transform="matrix(1,0,0,1,0,0)" fill="#ff0000" class="wordmark-text-0" data-fill-palette-color="primary" id="text-0"></path></svg></g></svg></g><g transform="matrix(1,0,0,1,0,58.266959767841854)"><svg viewBox="0 0 244.43135999999996 29.131688615041686" height="29.131688615041686" width="244.43135999999996"><g transform="matrix(1,0,0,1,0,0)"><svg width="244.43135999999996" viewBox="1.95 -31.74 344.15000000000003 41.019999999999996" height="29.131688615041686" data-palette-color="#ca3433"><path d="M23.73-20.51L24.71-20.51 24.46-29.3 1.95-29.3 1.95-28.03 5.86-28.03 5.86-1.27 1.95-1.27 1.95 0 24.46 0 24.71-8.79 23.73-8.79 23.05-6.49Q21.83-2.34 19.43-1.51L19.43-1.51Q18.7-1.27 17.87-1.27L17.87-1.27 10.06-1.27 10.06-14.4 20.12-14.4 20.12-15.82 10.06-15.82 10.06-28.03 17.87-28.03Q21.39-28.03 22.9-23.29L22.9-23.29Q23-23 23.05-22.8L23.05-22.8 23.73-20.51ZM57.71 0.49L57.71 0.49Q61.47 0.49 61.86-4.05L61.86-4.05Q61.91-4.35 61.91-4.59L61.91-4.59 60.64-4.64Q60.3-1.07 58.74-1.03L58.74-1.03Q57.47-1.12 57.42-3.56L57.42-3.56 57.42-13.87Q57.42-20.85 50.43-21.24L50.43-21.24Q50-21.24 49.56-21.24L49.56-21.24Q44.09-21.24 42.23-18.7L42.23-18.7Q41.65-17.87 41.65-17.04L41.65-17.04Q41.65-15.53 43.06-15.28L43.06-15.28Q43.31-15.23 43.55-15.23L43.55-15.23Q44.67-15.23 45.21-16.65L45.21-16.65Q45.89-18.46 46.14-18.8L46.14-18.8Q47.07-20.02 49.02-20.02L49.02-20.02Q53.61-19.73 53.76-14.99L53.76-14.99 53.76-11.91Q42.28-11.91 40.62-7.13L40.62-7.13Q40.33-6.2 40.33-5.13L40.33-5.13Q40.33-1.42 43.6-0.05L43.6-0.05Q44.92 0.49 46.38 0.49L46.38 0.49Q49.95 0.49 52.39-1.95L52.39-1.95Q53.27-2.88 53.71-3.91L53.71-3.91Q54.29 0.44 57.71 0.49ZM47.99-1.46L47.99-1.46Q45.02-1.46 44.33-4.44L44.33-4.44Q44.18-5.13 44.18-5.96L44.18-5.96Q44.18-9.23 47.94-10.11L47.94-10.11Q49.95-10.55 53.76-10.6L53.76-10.6 53.76-6.69Q53.02-3.32 50.19-1.95L50.19-1.95Q49.07-1.46 47.99-1.46ZM74.6-20.75L74.6-19.53 78.02-19.53 78.02-5.76Q78.36 0.34 83.63 0.54L83.63 0.54Q88.13 0.54 89.25-4.98L89.25-4.98Q89.25-5.03 89.25-5.08L89.25-5.08 87.93-5.32Q86.71-1.27 84.37-0.93L84.37-0.93Q81.73-1.03 81.68-4.69L81.68-4.69 81.68-19.53 89.25-19.53 89.25-20.75 81.68-20.75 81.68-26.42 78.02-25.39 78.02-20.75 74.6-20.75ZM133.28-1.22L133.28-1.22 130.84-1.22 130.84-11.77Q130.84-16.21 133.92-18.21L133.92-18.21Q135.19-19.04 136.55-19.04L136.55-19.04Q139.53-19.04 140.7-16.26L140.7-16.26Q141.24-14.94 141.24-13.33L141.24-13.33 141.24-4.15Q141.24-1.9 140.17-1.46L140.17-1.46Q139.48-1.22 137.82-1.22L137.82-1.22 137.82 0 148.57 0Q148.57-1.07 147.83-1.17L147.83-1.17Q147.64-1.22 147.35-1.22L147.35-1.22 144.9-1.22 144.9-13.33Q144.9-18.65 141.39-20.56L141.39-20.56Q140.02-21.24 138.46-21.24L138.46-21.24Q134.85-21.24 132.4-18.6L132.4-18.6Q131.38-17.48 130.84-16.06L130.84-16.06 130.84-31.74 123.52-31.74 123.52-30.52 127.18-30.52 127.18-4.15Q127.18-1.9 125.91-1.46L125.91-1.46Q125.18-1.22 123.52-1.22L123.52-1.22 123.52 0 134.5 0Q134.5-1.07 133.77-1.17L133.77-1.17Q133.58-1.22 133.28-1.22ZM173.46-20.02L173.46-20.02Q176.88-20.02 178-17.14L178-17.14Q178.4-16.21 178.4-15.14L178.4-15.14Q178.4-12.7 176.05-12.16L176.05-12.16Q174.83-11.91 172.58-11.96L172.58-11.96 167.41-12.11Q167.65-17.72 171.07-19.43L171.07-19.43Q172.19-20.02 173.46-20.02ZM181.96-4.69L181.96-4.69 180.74-5.13Q179.03-1.42 175.22-0.93L175.22-0.93Q174.73-0.88 174.29-0.88L174.29-0.88Q169.17-0.88 167.85-6.98L167.85-6.98Q167.46-8.69 167.41-10.74L167.41-10.74 173.27-10.64Q179.23-10.55 180.93-11.77L180.93-11.77Q182.25-12.74 182.25-14.55L182.25-14.55Q182.25-17.87 178.88-19.82L178.88-19.82Q176.49-21.24 173.37-21.24L173.37-21.24Q167.26-21.24 164.63-16.16L164.63-16.16Q163.26-13.53 163.26-10.21L163.26-10.21Q163.26-4.15 167.6-1.22L167.6-1.22Q170.19 0.49 173.51 0.49L173.51 0.49Q178.79 0.49 181.28-3.32L181.28-3.32Q181.67-4 181.96-4.69ZM214.52 0.49L214.52 0.49Q218.28 0.49 218.67-4.05L218.67-4.05Q218.72-4.35 218.72-4.59L218.72-4.59 217.45-4.64Q217.11-1.07 215.55-1.03L215.55-1.03Q214.28-1.12 214.23-3.56L214.23-3.56 214.23-13.87Q214.23-20.85 207.25-21.24L207.25-21.24Q206.81-21.24 206.37-21.24L206.37-21.24Q200.9-21.24 199.05-18.7L199.05-18.7Q198.46-17.87 198.46-17.04L198.46-17.04Q198.46-15.53 199.88-15.28L199.88-15.28Q200.12-15.23 200.36-15.23L200.36-15.23Q201.49-15.23 202.02-16.65L202.02-16.65Q202.71-18.46 202.95-18.8L202.95-18.8Q203.88-20.02 205.83-20.02L205.83-20.02Q210.42-19.73 210.57-14.99L210.57-14.99 210.57-11.91Q199.09-11.91 197.43-7.13L197.43-7.13Q197.14-6.2 197.14-5.13L197.14-5.13Q197.14-1.42 200.41-0.05L200.41-0.05Q201.73 0.49 203.2 0.49L203.2 0.49Q206.76 0.49 209.2-1.95L209.2-1.95Q210.08-2.88 210.52-3.91L210.52-3.91Q211.11 0.44 214.52 0.49ZM204.81-1.46L204.81-1.46Q201.83-1.46 201.14-4.44L201.14-4.44Q201-5.13 201-5.96L201-5.96Q201-9.23 204.76-10.11L204.76-10.11Q206.76-10.55 210.57-10.6L210.57-10.6 210.57-6.69Q209.84-3.32 207-1.95L207-1.95Q205.88-1.46 204.81-1.46ZM242.01-1.22L242.01-1.22 239.37-1.22 239.37-31.74 232.05-31.74 232.05-30.52 235.71-30.52 235.71-4.15Q235.71-1.9 234.44-1.46L234.44-1.46Q233.71-1.22 232.05-1.22L232.05-1.22 232.05 0 243.23 0Q243.23-1.07 242.5-1.17L242.5-1.17Q242.3-1.22 242.01-1.22ZM257-20.75L257-19.53 260.41-19.53 260.41-5.76Q260.75 0.34 266.03 0.54L266.03 0.54Q270.52 0.54 271.64-4.98L271.64-4.98Q271.64-5.03 271.64-5.08L271.64-5.08 270.33-5.32Q269.1-1.27 266.76-0.93L266.76-0.93Q264.12-1.03 264.08-4.69L264.08-4.69 264.08-19.53 271.64-19.53 271.64-20.75 264.08-20.75 264.08-26.42 260.41-25.39 260.41-20.75 257-20.75ZM294.69-1.22L294.69-1.22 292.24-1.22 292.24-11.77Q292.24-16.21 295.32-18.21L295.32-18.21Q296.59-19.04 297.96-19.04L297.96-19.04Q300.94-19.04 302.11-16.26L302.11-16.26Q302.64-14.94 302.64-13.33L302.64-13.33 302.64-4.15Q302.64-1.9 301.57-1.46L301.57-1.46Q300.89-1.22 299.23-1.22L299.23-1.22 299.23 0 309.97 0Q309.97-1.07 309.24-1.17L309.24-1.17Q309.04-1.22 308.75-1.22L308.75-1.22 306.31-1.22 306.31-13.33Q306.31-18.65 302.79-20.56L302.79-20.56Q301.42-21.24 299.86-21.24L299.86-21.24Q296.25-21.24 293.81-18.6L293.81-18.6Q292.78-17.48 292.24-16.06L292.24-16.06 292.24-31.74 284.92-31.74 284.92-30.52 288.58-30.52 288.58-4.15Q288.58-1.9 287.31-1.46L287.31-1.46Q286.58-1.22 284.92-1.22L284.92-1.22 284.92 0 295.91 0Q295.91-1.07 295.17-1.17L295.17-1.17Q294.98-1.22 294.69-1.22ZM327.74 7.76L327.74 7.76Q326.96 7.76 326.57 6.59L326.57 6.59Q326.03 5.13 325.54 4.79L325.54 4.79Q325.1 4.49 324.52 4.49L324.52 4.49Q322.95 4.49 322.71 5.86L322.71 5.86Q322.66 6.05 322.66 6.2L322.66 6.2Q322.66 8.06 324.81 8.89L324.81 8.89Q325.78 9.28 326.86 9.28L326.86 9.28Q330.72 9.28 333.55 4.54L333.55 4.54Q334.72 2.64 335.79 0L335.79 0 343.02-17.82Q343.51-19.19 344.1-19.38L344.1-19.38Q344.44-19.48 344.88-19.48L344.88-19.48Q345.85-19.48 346-20.02L346-20.02Q346.1-20.31 346.1-20.75L346.1-20.75 338.68-20.75 338.68-19.48 342.24-19.48 335.99-3.86 329.3-19.48 332.57-19.48 332.57-20.75 323.05-20.75 323.05-19.48 325.44-19.48 334.23 0Q331.5 6.45 329.11 7.47L329.11 7.47Q328.42 7.76 327.74 7.76Z" opacity="1" transform="matrix(1,0,0,1,0,0)" fill="#ca3433" class="slogan-text-1" data-fill-palette-color="secondary" id="text-1"></path></svg></g></svg></g></svg></g></svg></g></svg></g></svg></g></svg></g><g><path d="M0 123.6c0-68.262 55.338-123.6 123.6-123.6 50.752 0 94.36 30.589 113.392 74.337h-2.322c-18.897-42.542-61.519-72.211-111.07-72.212-67.089 0-121.474 54.386-121.474 121.475 0 67.089 54.386 121.474 121.474 121.474 49.551 0 92.173-29.669 111.07-72.211h2.322c-19.032 43.747-62.64 74.337-113.392 74.337-68.262 0-123.6-55.338-123.6-123.6z" fill="#ff0000" stroke="transparent" data-fill-palette-color="tertiary"></path></g></svg></g><defs></defs></svg><rect width="395.52" height="247.2" fill="none" stroke="none" visibility="hidden"></rect></g></svg></g></svg>